####
#
#	OBJ File Generated by LightWave3D
#	LightWave3D OBJ Export v2.3
#
####
o rectangle.obj
mtllib rectangle.mtl
g default
v -0.5 -0.5 -0
v -0.5 0 -0
v -0.5 0.5 -0
v 0 0.5 -0
v 0.5 0.5 -0
v 0.5 0 -0
v 0.5 -0.5 -0
v 0 -0.5 -0
v 0 0 -0
vn 0 0 1
vn 0 0 1
vn 0 0 1
vn 0 0 1
vn 0 0 1
vn 0 0 1
vn 0 0 1
vn 0 0 1
vn 0 0 1
vn 0 0 1
vn 0 0 1
vn 0 0 1
vn 0 0 1
vn 0 0 1
vn 0 0 1
vn 0 0 1
vn 0 0 1
vn 0 0 1
vn 0 0 1
vn 0 0 1
vn 0 0 1
vn 0 0 1
vn 0 0 1
vn 0 0 1
g Default
usemtl Default
s off
f 2//1 1//2 8//3
f 9//4 2//5 8//6
f 7//7 9//8 8//9
f 6//10 9//11 7//12
f 3//13 2//14 9//15
f 4//16 3//17 9//18
f 6//19 4//20 9//21
f 5//22 4//23 6//24
