####
#
#	OBJ File Generated by LightWave3D
#	LightWave3D OBJ Export v2.3
#
####
o ring.obj
mtllib ring.mtl
g default
v 0.412724 0.412724 -0
v 0.426156 0.426156 -0
v 0.375179 0.44712 -0
v 0.387389 0.461672 -0
v 0.334781 0.478118 -0
v 0.345677 0.493679 -0
v 0.29184 0.505482 -0
v 0.301338 0.521933 -0
v 0.505482 0.29184 -0
v 0.521933 0.301338 -0
v 0.478118 0.334781 -0
v 0.493679 0.345677 -0
v 0.44712 0.375179 -0
v 0.461672 0.387389 -0
v 0.563792 0.151067 -0
v 0.58214 0.155984 -0
v 0.548474 0.199628 -0
v 0.566325 0.206125 -0
v 0.528988 0.246672 -0
v 0.546204 0.2547 -0
v 0.58368 0 -0
v 0.602676 0 -0
v 0.581453 0.0508701 -0
v 0.600377 0.0525257 -0
v 0.574807 0.101354 -0
v 0.593514 0.104653 -0
v 0.58214 -0.155984 -0
v 0.593514 -0.104653 -0
v 0.600377 -0.0525257 -0
v 0.563792 -0.151067 -0
v 0.574807 -0.101354 -0
v 0.581453 -0.0508701 -0
v 0.521933 -0.301338 -0
v 0.546204 -0.2547 -0
v 0.566325 -0.206125 -0
v 0.505482 -0.29184 -0
v 0.528988 -0.246672 -0
v 0.548474 -0.199628 -0
v 0.426156 -0.426156 -0
v 0.461672 -0.387389 -0
v 0.493679 -0.345677 -0
v 0.412724 -0.412724 -0
v 0.44712 -0.375179 -0
v 0.478118 -0.334781 -0
v 0.301338 -0.521933 -0
v 0.345677 -0.493679 -0
v 0.387389 -0.461672 -0
v 0.29184 -0.505482 -0
v 0.334781 -0.478118 -0
v 0.375179 -0.44712 -0
v 0.155984 -0.58214 -0
v 0.206125 -0.566325 -0
v 0.2547 -0.546204 -0
v 0.151067 -0.563792 -0
v 0.199628 -0.548474 -0
v 0.246672 -0.528988 -0
v 0 -0.602676 -0
v 0.0525257 -0.600377 -0
v 0.104653 -0.593514 -0
v 0 -0.58368 -0
v 0.0508701 -0.581453 -0
v 0.101354 -0.574807 -0
v -0.0525257 -0.600377 -0
v -0.0508701 -0.581453 -0
v -0.104653 -0.593514 -0
v -0.101354 -0.574807 -0
v -0.155984 -0.58214 -0
v -0.151067 -0.563792 -0
v -0.206125 -0.566325 -0
v -0.199628 -0.548474 -0
v -0.2547 -0.546204 -0
v -0.246672 -0.528988 -0
v -0.301338 -0.521933 -0
v -0.29184 -0.505482 -0
v -0.345677 -0.493679 -0
v -0.334781 -0.478118 -0
v -0.387389 -0.461672 -0
v -0.375179 -0.44712 -0
v -0.426156 -0.426156 -0
v -0.412724 -0.412724 -0
v -0.461672 -0.387389 -0
v -0.44712 -0.375179 -0
v -0.493679 -0.345677 -0
v -0.478118 -0.334781 -0
v -0.521933 -0.301338 -0
v -0.505482 -0.29184 -0
v -0.546204 -0.2547 -0
v -0.528988 -0.246672 -0
v -0.566325 -0.206125 -0
v -0.548474 -0.199628 -0
v -0.58214 -0.155984 -0
v -0.563792 -0.151067 -0
v -0.593514 -0.104653 -0
v -0.574807 -0.101354 -0
v -0.600377 -0.0525257 -0
v -0.581453 -0.0508701 -0
v -0.602676 0 -0
v -0.58368 0 -0
v -0.581453 0.0508701 -0
v -0.574807 0.101354 -0
v -0.563792 0.151067 -0
v -0.600377 0.0525257 -0
v -0.593514 0.104653 -0
v -0.58214 0.155984 -0
v -0.548474 0.199628 -0
v -0.528988 0.246672 -0
v -0.505482 0.29184 -0
v -0.566325 0.206125 -0
v -0.546204 0.2547 -0
v -0.521933 0.301338 -0
v -0.478118 0.334781 -0
v -0.44712 0.375179 -0
v -0.412724 0.412724 -0
v -0.493679 0.345677 -0
v -0.461672 0.387389 -0
v -0.426156 0.426156 -0
v -0.375179 0.44712 -0
v -0.334781 0.478118 -0
v -0.29184 0.505482 -0
v -0.387389 0.461672 -0
v -0.345677 0.493679 -0
v -0.301338 0.521933 -0
v -0.246672 0.528988 -0
v -0.199628 0.548474 -0
v -0.151067 0.563792 -0
v -0.2547 0.546204 -0
v -0.206125 0.566325 -0
v -0.155984 0.58214 -0
v -0.101354 0.574807 -0
v -0.0508701 0.581453 -0
v 0 0.58368 -0
v -0.104653 0.593514 -0
v -0.0525257 0.600377 -0
v 0 0.602676 -0
v 0.151067 0.563792 -0
v 0.155984 0.58214 -0
v 0.101354 0.574807 -0
v 0.104653 0.593514 -0
v 0.0508701 0.581453 -0
v 0.0525257 0.600377 -0
v 0.246672 0.528988 -0
v 0.2547 0.546204 -0
v 0.199628 0.548474 -0
v 0.206125 0.566325 -0
vn 0 0 1
vn 0 0 1
vn 0 0 1
vn 0 0 1
vn 0 0 1
vn 0 0 1
vn 0 0 1
vn 0 0 1
vn 0 0 1
vn 0 0 1
vn 0 0 1
vn 0 0 1
vn 0 0 1
vn 0 0 1
vn 0 0 1
vn 0 0 1
vn 0 0 1
vn 0 0 1
vn 0 0 1
vn 0 0 1
vn 0 0 1
vn 0 0 1
vn 0 0 1
vn 0 0 1
vn 0 0 1
vn 0 0 1
vn 0 0 1
vn 0 0 1
vn 0 0 1
vn 0 0 1
vn 0 0 1
vn 0 0 1
vn 0 0 1
vn 0 0 1
vn 0 0 1
vn 0 0 1
vn 0 0 1
vn 0 0 1
vn 0 0 1
vn 0 0 1
vn 0 0 1
vn 0 0 1
vn 0 0 1
vn 0 0 1
vn 0 0 1
vn 0 0 1
vn 0 0 1
vn 0 0 1
vn 0 0 1
vn 0 0 1
vn 0 0 1
vn 0 0 1
vn 0 0 1
vn 0 0 1
vn 0 0 1
vn 0 0 1
vn 0 0 1
vn 0 0 1
vn 0 0 1
vn 0 0 1
vn 0 0 1
vn 0 0 1
vn 0 0 1
vn 0 0 1
vn 0 0 1
vn 0 0 1
vn 0 0 1
vn 0 0 1
vn 0 0 1
vn 0 0 1
vn 0 0 1
vn 0 0 1
vn 0 0 1
vn 0 0 1
vn 0 0 1
vn 0 0 1
vn 0 0 1
vn 0 0 1
vn 0 0 1
vn 0 0 1
vn 0 0 1
vn 0 0 1
vn 0 0 1
vn 0 0 1
vn 0 0 1
vn 0 0 1
vn 0 0 1
vn 0 0 1
vn 0 0 1
vn 0 0 1
vn 0 0 1
vn 0 0 1
vn 0 0 1
vn 0 0 1
vn 0 0 1
vn 0 0 1
vn 0 0 1
vn 0 0 1
vn 0 0 1
vn 0 0 1
vn 0 0 1
vn 0 0 1
vn 0 0 1
vn 0 0 1
vn 0 0 1
vn 0 0 1
vn 0 0 1
vn 0 0 1
vn 0 0 1
vn 0 0 1
vn 0 0 1
vn 0 0 1
vn 0 0 1
vn 0 0 1
vn 0 0 1
vn 0 0 1
vn 0 0 1
vn 0 0 1
vn 0 0 1
vn 0 0 1
vn 0 0 1
vn 0 0 1
vn 0 0 1
vn 0 0 1
vn 0 0 1
vn 0 0 1
vn 0 0 1
vn 0 0 1
vn 0 0 1
vn 0 0 1
vn 0 0 1
vn 0 0 1
vn 0 0 1
vn 0 0 1
vn 0 0 1
vn 0 0 1
vn 0 0 1
vn 0 0 1
vn 0 0 1
vn 0 0 1
vn 0 0 1
vn 0 0 1
vn 0 0 1
vn 0 0 1
vn 0 0 1
vn 0 0 1
vn 0 0 1
vn 0 0 1
vn 0 0 1
vn 0 0 1
vn 0 0 1
vn 0 0 1
vn 0 0 1
vn 0 0 1
vn 0 0 1
vn 0 0 1
vn 0 0 1
vn 0 0 1
vn 0 0 1
vn 0 0 1
vn 0 0 1
vn 0 0 1
vn 0 0 1
vn 0 0 1
vn 0 0 1
vn 0 0 1
vn 0 0 1
vn 0 0 1
vn 0 0 1
vn 0 0 1
vn 0 0 1
vn 0 0 1
vn 0 0 1
vn 0 0 1
vn 0 0 1
vn 0 0 1
vn 0 0 1
vn 0 0 1
vn 0 0 1
vn 0 0 1
vn 0 0 1
vn 0 0 1
vn 0 0 1
vn 0 0 1
vn 0 0 1
vn 0 0 1
vn 0 0 1
vn 0 0 1
vn 0 0 1
vn 0 0 1
vn 0 0 1
vn 0 0 1
vn 0 0 1
vn 0 0 1
vn 0 0 1
vn 0 0 1
vn 0 0 1
vn 0 0 1
vn 0 0 1
vn 0 0 1
vn 0 0 1
vn 0 0 1
vn 0 0 1
vn 0 0 1
vn 0 0 1
vn 0 0 1
vn 0 0 1
vn 0 0 1
vn 0 0 1
vn 0 0 1
vn 0 0 1
vn 0 0 1
vn 0 0 1
vn 0 0 1
vn 0 0 1
vn 0 0 1
vn 0 0 1
vn 0 0 1
vn 0 0 1
vn 0 0 1
vn 0 0 1
vn 0 0 1
vn 0 0 1
vn 0 0 1
vn 0 0 1
vn 0 0 1
vn 0 0 1
vn 0 0 1
vn 0 0 1
vn 0 0 1
vn 0 0 1
vn 0 0 1
vn 0 0 1
vn 0 0 1
vn 0 0 1
vn 0 0 1
vn 0 0 1
vn 0 0 1
vn 0 0 1
vn 0 0 1
vn 0 0 1
vn 0 0 1
vn 0 0 1
vn 0 0 1
vn 0 0 1
vn 0 0 1
vn 0 0 1
vn 0 0 1
vn 0 0 1
vn 0 0 1
vn 0 0 1
vn 0 0 1
vn 0 0 1
vn 0 0 1
vn 0 0 1
vn 0 0 1
vn 0 0 1
vn 0 0 1
vn 0 0 1
vn 0 0 1
vn 0 0 1
vn 0 0 1
vn 0 0 1
vn 0 0 1
vn 0 0 1
vn 0 0 1
vn 0 0 1
vn 0 0 1
vn 0 0 1
vn 0 0 1
vn 0 0 1
vn 0 0 1
vn 0 0 1
vn 0 0 1
vn 0 0 1
vn 0 0 1
vn 0 0 1
vn 0 0 1
vn 0 0 1
vn 0 0 1
vn 0 0 1
vn 0 0 1
vn 0 0 1
vn 0 0 1
vn 0 0 1
vn 0 0 1
vn 0 0 1
vn 0 0 1
vn 0 0 1
vn 0 0 1
vn 0 0 1
vn 0 0 1
vn 0 0 1
vn 0 0 1
vn 0 0 1
vn 0 0 1
vn 0 0 1
vn 0 0 1
vn 0 0 1
vn 0 0 1
vn 0 0 1
vn 0 0 1
vn 0 0 1
vn 0 0 1
vn 0 0 1
vn 0 0 1
vn 0 0 1
vn 0 0 1
vn 0 0 1
vn 0 0 1
vn 0 0 1
vn 0 0 1
vn 0 0 1
vn 0 0 1
vn 0 0 1
vn 0 0 1
vn 0 0 1
vn 0 0 1
vn 0 0 1
vn 0 0 1
vn 0 0 1
vn 0 0 1
vn 0 0 1
vn 0 0 1
vn 0 0 1
vn 0 0 1
vn 0 0 1
vn 0 0 1
vn 0 0 1
vn 0 0 1
vn 0 0 1
vn 0 0 1
vn 0 0 1
vn 0 0 1
vn 0 0 1
vn 0 0 1
vn 0 0 1
vn 0 0 1
vn 0 0 1
vn 0 0 1
vn 0 0 1
vn 0 0 1
vn 0 0 1
vn 0 0 1
vn 0 0 1
vn 0 0 1
vn 0 0 1
vn 0 0 1
vn 0 0 1
vn 0 0 1
vn 0 0 1
vn 0 0 1
vn 0 0 1
vn 0 0 1
vn 0 0 1
vn 0 0 1
vn 0 0 1
vn 0 0 1
vn 0 0 1
vn 0 0 1
vn 0 0 1
vn 0 0 1
vn 0 0 1
vn 0 0 1
vn 0 0 1
vn 0 0 1
vn 0 0 1
vn 0 0 1
vn 0 0 1
vn 0 0 1
vn 0 0 1
vn 0 0 1
vn 0 0 1
vn 0 0 1
vn 0 0 1
vn 0 0 1
vn 0 0 1
vn 0 0 1
vn 0 0 1
vn 0 0 1
vn 0 0 1
vn 0 0 1
vn 0 0 1
vn 0 0 1
vn 0 0 1
vn 0 0 1
vn 0 0 1
vn 0 0 1
vn 0 0 1
vn 0 0 1
vn 0 0 1
vn 0 0 1
vn 0 0 1
vn 0 0 1
vn 0 0 1
vn 0 0 1
vn 0 0 1
vn 0 0 1
vn 0 0 1
vn 0 0 1
vn 0 0 1
vn 0 0 1
vn 0 0 1
vn 0 0 1
vn 0 0 1
vn 0 0 1
vn 0 0 1
vn 0 0 1
vn 0 0 1
vn 0 0 1
vn 0 0 1
vn 0 0 1
vn 0 0 1
vn 0 0 1
vn 0 0 1
vn 0 0 1
vn 0 0 1
vn 0 0 1
vn 0 0 1
vn 0 0 1
vn 0 0 1
vn 0 0 1
vn 0 0 1
vn 0 0 1
vn 0 0 1
vn 0 0 1
vn 0 0 1
vn 0 0 1
vn 0 0 1
vn 0 0 1
vn 0 0 1
vn 0 0 1
g ring
usemtl ring
s off
f 2//1 4//2 1//3
f 4//4 3//5 1//6
f 4//7 6//8 3//9
f 6//10 5//11 3//12
f 6//13 7//14 5//15
f 8//16 7//17 6//18
f 10//19 12//20 9//21
f 12//22 11//23 9//24
f 12//25 14//26 11//27
f 14//28 13//29 11//30
f 14//31 1//32 13//33
f 2//34 1//35 14//36
f 16//37 18//38 15//39
f 18//40 17//41 15//42
f 18//43 19//44 17//45
f 20//46 19//47 18//48
f 10//49 9//50 20//51
f 20//52 9//53 19//54
f 22//55 24//56 21//57
f 24//58 23//59 21//60
f 26//61 25//62 24//63
f 24//64 25//65 23//66
f 16//67 15//68 26//69
f 26//70 15//71 25//72
f 28//73 30//74 27//75
f 28//76 31//77 30//78
f 29//79 32//80 28//81
f 32//82 31//83 28//84
f 21//85 32//86 29//87
f 22//88 21//89 29//90
f 34//91 36//92 33//93
f 34//94 37//95 36//96
f 38//97 37//98 34//99
f 35//100 38//101 34//102
f 27//103 30//104 35//105
f 30//106 38//107 35//108
f 40//109 42//110 39//111
f 40//112 43//113 42//114
f 41//115 43//116 40//117
f 41//118 44//119 43//120
f 33//121 36//122 41//123
f 36//124 44//125 41//126
f 46//127 48//128 45//129
f 46//130 49//131 48//132
f 47//133 49//134 46//135
f 47//136 50//137 49//138
f 42//139 50//140 47//141
f 39//142 42//143 47//144
f 52//145 54//146 51//147
f 55//148 54//149 52//150
f 56//151 55//152 52//153
f 53//154 56//155 52//156
f 45//157 48//158 53//159
f 48//160 56//161 53//162
f 58//163 60//164 57//165
f 61//166 60//167 58//168
f 59//169 62//170 58//171
f 62//172 61//173 58//174
f 54//175 62//176 59//177
f 51//178 54//179 59//180
f 60//181 64//182 63//183
f 60//184 63//185 57//186
f 66//187 65//188 63//189
f 64//190 66//191 63//192
f 68//193 67//194 65//195
f 66//196 68//197 65//198
f 72//199 71//200 69//201
f 70//202 72//203 69//204
f 74//205 73//206 71//207
f 72//208 74//209 71//210
f 74//211 75//212 73//213
f 76//214 75//215 74//216
f 78//217 77//218 76//219
f 76//220 77//221 75//222
f 80//223 79//224 77//225
f 78//226 80//227 77//228
f 82//229 81//230 80//231
f 80//232 81//233 79//234
f 82//235 83//236 81//237
f 84//238 83//239 82//240
f 86//241 85//242 83//243
f 84//244 86//245 83//246
f 86//247 87//248 85//249
f 88//250 87//251 86//252
f 90//253 89//254 87//255
f 88//256 90//257 87//258
f 92//259 91//260 89//261
f 90//262 92//263 89//264
f 92//265 93//266 91//267
f 94//268 93//269 92//270
f 96//271 95//272 93//273
f 94//274 96//275 93//276
f 98//277 97//278 95//279
f 96//280 98//281 95//282
f 102//283 97//284 98//285
f 99//286 102//287 98//288
f 100//289 103//290 102//291
f 100//292 102//293 99//294
f 101//295 104//296 103//297
f 101//298 103//299 100//300
f 108//301 104//302 101//303
f 105//304 108//305 101//306
f 106//307 109//308 108//309
f 106//310 108//311 105//312
f 107//313 110//314 109//315
f 107//316 109//317 106//318
f 115//319 114//320 111//321
f 112//322 115//323 111//324
f 113//325 116//326 115//327
f 113//328 115//329 112//330
f 114//331 110//332 107//333
f 111//334 114//335 107//336
f 117//337 120//338 113//339
f 120//340 116//341 113//342
f 121//343 120//344 117//345
f 118//346 121//347 117//348
f 119//349 122//350 121//351
f 119//352 121//353 118//354
f 123//355 126//356 119//357
f 126//358 122//359 119//360
f 124//361 127//362 126//363
f 124//364 126//365 123//366
f 128//367 127//368 125//369
f 125//370 127//371 124//372
f 133//373 132//374 130//375
f 130//376 132//377 129//378
f 134//379 133//380 131//381
f 131//382 133//383 130//384
f 132//385 128//386 125//387
f 129//388 132//389 125//390
f 136//391 138//392 135//393
f 138//394 137//395 135//396
f 138//397 139//398 137//399
f 138//400 140//401 139//402
f 140//403 134//404 131//405
f 140//406 131//407 139//408
f 8//409 142//410 7//411
f 142//412 141//413 7//414
f 142//415 143//416 141//417
f 144//418 143//419 142//420
f 144//421 136//422 135//423
f 144//424 135//425 143//426
f 68//427 69//428 67//429
f 68//430 70//431 69//432
